<?xml version="1.0" encoding="UTF-8" standalone="no"?>
<!DOCTYPE svg PUBLIC "-//W3C//DTD SVG 1.1//EN" "http://www.w3.org/Graphics/SVG/1.1/DTD/svg11.dtd">
<svg width="100%" height="100%" viewBox="0 0 257 256" version="1.1" xmlns="http://www.w3.org/2000/svg" xmlns:xlink="http://www.w3.org/1999/xlink" xml:space="preserve" xmlns:serif="http://www.serif.com/" style="fill-rule:evenodd;clip-rule:evenodd;stroke-linejoin:round;stroke-miterlimit:2;">
    <g transform="matrix(1,0,0,1,-3659,0)">
        <g id="icon-start" transform="matrix(1.26367,0,0,0.915456,160.677,21.834)">
            <rect x="2768.61" y="-23.85" width="202.585" height="279.642" style="fill:none;"/>
            <clipPath id="_clip1">
                <rect x="2768.61" y="-23.85" width="202.585" height="279.642"/>
            </clipPath>
            <g clip-path="url(#_clip1)">
                <g id="icon-iphone.svg" transform="matrix(0.231932,0,0,0.320151,2869.9,115.971)">
                    <g transform="matrix(1,0,0,1,-256,-256)">
                        <g>
                            <path d="M341.601,0L170.397,0C141.107,0 117.277,23.828 117.277,53.121L117.277,458.879C117.277,488.169 141.107,512 170.397,512L341.601,512C370.893,512 394.722,488.168 394.722,458.883L394.722,53.121C394.722,23.828 370.893,0 341.601,0ZM255.999,480.622C244.13,480.622 234.473,470.964 234.473,459.096C234.473,447.225 244.129,437.57 255.999,437.57C267.868,437.57 277.525,447.225 277.525,459.096C277.525,470.964 267.868,480.622 255.999,480.622ZM363.274,67.271L363.274,407.427L148.724,407.427L148.724,67.271L363.274,67.271Z" style="fill:rgb(75,75,75);fill-rule:nonzero;"/>
                        </g>
                    </g>
                </g>
                <g id="禁止マークのアイコン素材.svg" transform="matrix(0.395674,0,0,0.546176,2869.9,115.971)">
                    <g transform="matrix(1,0,0,1,-256,-256)">
                        <g>
                            <path d="M256,0C114.613,0 0,114.615 0,256C0,397.385 114.613,512 256,512C397.383,512 512,397.385 512,256C512,114.615 397.383,0 256,0ZM99.594,144.848L367.15,412.406C335.754,434.781 297.402,448 256,448C150.129,448 64,361.869 64,256C64,214.596 77.217,176.244 99.594,144.848ZM412.404,367.15L144.848,99.594C176.242,77.219 214.594,64 256,64C361.867,64 448,150.131 448,256C448,297.404 434.781,335.756 412.404,367.15Z" style="fill:rgb(75,75,75);fill-rule:nonzero;"/>
                        </g>
                    </g>
                </g>
            </g>
        </g>
    </g>
</svg>
