<?xml version="1.0" encoding="UTF-8" standalone="no"?>
<!DOCTYPE svg PUBLIC "-//W3C//DTD SVG 1.1//EN" "http://www.w3.org/Graphics/SVG/1.1/DTD/svg11.dtd">
<svg width="100%" height="100%" viewBox="0 0 257 256" version="1.1" xmlns="http://www.w3.org/2000/svg" xmlns:xlink="http://www.w3.org/1999/xlink" xml:space="preserve" xmlns:serif="http://www.serif.com/" style="fill-rule:evenodd;clip-rule:evenodd;stroke-linejoin:round;stroke-miterlimit:1.5;">
    <g transform="matrix(1,0,0,1,-3077,0)">
        <g id="icon-screen" transform="matrix(1.26367,0,0,0.915456,-421.268,21.834)">
            <rect x="2768.61" y="-23.85" width="202.585" height="279.642" style="fill:none;"/>
            <g transform="matrix(0.791349,0,0,1.09235,333.37,-23.8504)">
                <path d="M3246.58,16.671L3114.67,132.792L3182.87,72.756L3226.94,107.022L3126.16,237.969L3182.9,164.248L3293.93,187.874" style="fill:none;stroke:rgb(75,75,75);stroke-width:14px;"/>
            </g>
            <g transform="matrix(0.395674,0,0,0.546176,2768.61,-23.8504)">
                <path d="M426.438,0L85.578,0C70.484,0 58.172,12.344 58.172,27.406L58.172,484.594C58.172,499.657 70.485,512 85.578,512L426.437,512C441.5,512 453.828,499.656 453.828,484.594L453.828,27.406C453.828,12.344 441.5,0 426.438,0ZM256.016,25.281C260.079,25.281 263.407,28.594 263.407,32.687C263.407,36.78 260.079,40.093 256.016,40.093C251.922,40.093 248.594,36.78 248.594,32.687C248.594,28.594 251.922,25.281 256.016,25.281ZM256.016,495.609C248.985,495.609 243.297,489.906 243.297,482.89C243.297,475.874 248.985,470.187 256.016,470.187C263.016,470.187 268.704,475.875 268.704,482.89C268.704,489.905 263.016,495.609 256.016,495.609ZM426.438,453.781L85.578,453.75L85.578,58.219L426.437,58.219L426.437,453.781L426.438,453.781Z" style="fill:rgb(75,75,75);fill-rule:nonzero;"/>
            </g>
        </g>
    </g>
</svg>
