<?xml version="1.0" encoding="UTF-8" standalone="no"?>
<!DOCTYPE svg PUBLIC "-//W3C//DTD SVG 1.1//EN" "http://www.w3.org/Graphics/SVG/1.1/DTD/svg11.dtd">
<svg width="100%" height="100%" viewBox="0 0 257 256" version="1.1" xmlns="http://www.w3.org/2000/svg" xmlns:xlink="http://www.w3.org/1999/xlink" xml:space="preserve" xmlns:serif="http://www.serif.com/" style="fill-rule:evenodd;clip-rule:evenodd;stroke-linejoin:round;stroke-miterlimit:2;">
    <g transform="matrix(1,0,0,1,-4261,0)">
        <g id="icon-ask" transform="matrix(1.26367,0,0,0.915456,762.937,21.834)">
            <rect x="2768.61" y="-23.85" width="202.585" height="279.642" style="fill:none;"/>
            <clipPath id="_clip1">
                <rect x="2768.61" y="-23.85" width="202.585" height="279.642"/>
            </clipPath>
            <g clip-path="url(#_clip1)">
                <g id="icon-concierge.svg" transform="matrix(0.324548,0,0,0.447995,2834.05,141.105)">
                    <g transform="matrix(1,0,0,1,-256,-256)">
                        <clipPath id="_clip2">
                            <rect x="0" y="0" width="512" height="512"/>
                        </clipPath>
                        <g clip-path="url(#_clip2)">
                            <g>
                                <path d="M456.789,429.797C454.789,422.313 451.93,415.594 448.43,409.609C442.274,399.093 434.117,390.906 425.102,384.406C418.321,379.5 411.086,375.515 403.727,372.093C392.664,366.937 381.352,362.999 370.883,359.202C360.414,355.405 350.758,351.718 343.211,347.436L342.367,346.967C339.633,345.404 337.195,343.748 335.086,342.029C331.883,339.404 329.43,336.623 327.633,333.513C325.82,330.404 324.633,326.904 324.164,322.529C323.82,319.435 323.68,319.638 323.68,316.529C323.664,307.341 324.961,298.279 326.524,290.873C331.227,285.654 335.508,279.435 339.587,271.998C343.665,264.529 347.54,255.779 351.4,245.435C353.869,244.31 356.369,242.997 358.806,241.372C364.369,237.716 369.634,232.591 374.025,225.747C378.431,218.934 381.963,210.45 384.353,199.966C385.025,197.091 385.353,194.185 385.353,191.341C385.353,185.403 383.931,179.747 381.525,174.653C379.869,171.184 377.759,167.965 375.306,165.028C376.54,160.465 378.087,154.34 379.431,147.122C381.306,137.153 382.869,125.153 382.869,112.559C382.869,104.403 382.213,95.996 380.541,87.715C379.275,81.496 377.432,75.309 374.807,69.402C370.901,60.527 365.198,52.152 357.26,45.246C349.932,38.84 340.713,33.762 329.619,30.496C325.697,25.871 321.76,21.933 317.713,18.59C314.229,15.715 310.65,13.277 307.01,11.309C301.51,8.309 295.822,6.34 289.979,5.121C284.151,3.902 278.198,3.465 272.057,3.465C263.557,3.496 254.619,4.309 244.729,5.262C241.01,5.637 237.87,6.09 235.166,6.559C231.119,7.278 228.072,8.028 225.65,8.497C224.431,8.747 223.353,8.935 222.322,9.028C221.259,9.184 220.228,9.247 219.072,9.247C217.541,9.247 215.728,9.122 213.384,8.778C206.196,7.747 199.603,6.153 194.446,4.59C191.868,3.809 189.649,3.059 187.899,2.402C187.024,2.089 186.274,1.777 185.649,1.527C185.055,1.277 184.586,1.058 184.321,0.933C183.524,0.527 182.758,0.308 182.087,0.167C181.383,0.031 180.789,0 180.273,0C179.179,0 178.398,0.156 177.789,0.313C177.164,0.485 176.68,0.657 176.258,0.829C175.43,1.157 174.789,1.501 174.164,1.876C172.992,2.564 171.898,3.329 170.711,4.22C168.664,5.783 166.398,7.72 164.008,10.001C160.414,13.407 156.586,17.532 153.086,22.017C151.352,24.251 149.695,26.611 148.211,29.033C146.742,31.471 145.43,33.955 144.43,36.564C139.367,49.47 136.024,61.377 133.946,72.345C131.868,83.345 131.071,93.408 131.087,102.642C131.071,117.751 133.228,130.564 135.275,141.376C135.291,141.907 135.322,142.392 135.353,142.907C135.416,143.907 135.509,144.97 135.619,146.063C135.791,147.688 135.994,149.376 136.15,150.766C136.213,151.469 136.275,152.094 136.306,152.594C136.337,152.813 136.353,153.032 136.353,153.188L136.369,153.344L136.369,154.313L138.4,163.157C135.478,166.282 132.962,169.782 131.009,173.626C128.29,178.97 126.665,185.001 126.665,191.36C126.665,194.188 126.993,197.094 127.649,200.001L127.649,199.97C129.258,206.97 131.368,213.064 133.883,218.376C137.664,226.36 142.461,232.564 147.789,237.22C151.898,240.845 156.273,243.486 160.648,245.439C164.476,255.783 168.367,264.502 172.445,271.97C176.492,279.439 180.789,285.626 185.508,290.845C187.055,298.283 188.352,307.345 188.336,316.548C188.336,319.657 188.18,319.439 187.883,322.532C187.539,325.532 186.867,328.141 185.914,330.47C184.445,333.97 182.336,336.97 179.461,339.767C176.586,342.564 172.945,345.158 168.633,347.564L165.258,349.345C161.664,351.158 157.711,352.876 153.492,354.564C143.789,358.439 132.711,362.095 121.476,366.486C113.038,369.799 104.523,373.549 96.398,378.267C90.304,381.783 84.445,385.892 79.039,390.751C70.976,398.032 64.008,407.095 59.18,418.314C54.352,429.564 51.68,442.845 51.68,458.564C51.68,460.752 52.149,462.908 52.93,464.845C53.664,466.658 54.649,468.345 55.821,469.939C58.04,472.908 60.915,475.564 64.43,478.127C70.571,482.596 78.774,486.768 89.368,490.721C105.259,496.612 126.54,501.909 154.071,505.752C181.587,509.596 215.337,512.002 256.024,512.002C291.274,512.002 321.321,510.189 346.633,507.221C365.602,504.971 381.899,502.065 395.758,498.752C406.133,496.252 415.133,493.518 422.867,490.627C428.664,488.471 433.726,486.221 438.148,483.908C441.445,482.189 444.382,480.408 446.961,478.564C450.852,475.814 453.961,472.97 456.32,469.751C457.508,468.126 458.492,466.407 459.195,464.532C459.898,462.688 460.336,460.657 460.32,458.563C460.32,447.906 459.102,438.344 456.789,429.797ZM239.18,430.656L184.914,357.125C185.617,356.625 186.32,356.094 186.977,355.578C189.961,353.234 192.727,350.594 195.149,347.625L238.883,367.594L229.539,382.907L244.008,397.97L239.18,430.656ZM201.352,337.531C203.102,333.484 204.305,329.031 204.79,324.25C205.196,320.531 205.368,320.156 205.368,316.547C205.368,304.766 203.587,293.75 201.665,285.109L201.165,282.843L199.54,281.14C195.399,276.843 191.431,271.374 187.446,264.062C183.446,256.749 179.477,247.656 175.383,236.312L174.055,232.593L170.305,231.249C167.696,230.311 165.164,229.093 162.727,227.483C159.055,225.045 155.571,221.749 152.383,216.811C149.195,211.873 146.32,205.248 144.258,196.28C143.883,194.592 143.695,192.952 143.695,191.358C143.695,187.795 144.586,184.389 146.226,181.124C147.601,178.436 149.523,175.874 151.851,173.561C155.757,179.374 158.992,183.983 160.164,185.139C163.992,188.905 160.398,179.623 161.008,170.061C162.164,151.452 179.805,129.936 181.883,87.155C227.852,97.203 317.742,78 317.742,78C317.742,78 318.711,99.969 334.039,120.047C348.57,139.125 356.852,183.875 356.852,183.875C356.852,183.875 358.836,180.187 361.79,175.25C363.556,177.281 365.009,179.469 366.103,181.75C367.541,184.813 368.322,188 368.322,191.344C368.322,192.953 368.134,194.594 367.759,196.282C366.384,202.251 364.65,207.188 362.712,211.266C359.774,217.407 356.431,221.625 352.899,224.75C349.383,227.813 345.633,229.844 341.727,231.25L337.977,232.594L336.649,236.297C332.555,247.656 328.571,256.75 324.586,264.078C320.586,271.375 316.602,276.875 312.477,281.156L310.852,282.859L310.352,285.125C308.414,293.75 306.649,304.766 306.649,316.531C306.649,320.156 306.821,320.515 307.212,324.25C307.665,328.594 308.681,332.672 310.196,336.406C310.259,336.594 310.352,336.781 310.415,336.937L258.681,363.687L201.352,337.531ZM277.133,434.156L271.789,397.968L286.242,382.905L276.867,367.53L316.43,347.092C317.539,348.467 318.696,349.78 319.93,351.014C322.18,353.295 324.633,355.342 327.227,357.233L277.133,434.156Z" style="fill:rgb(75,75,75);fill-rule:nonzero;"/>
                                <path d="M324.039,251.063C324.039,251.063 313.445,246.141 306.539,235.469C297.711,221.813 279.32,205.906 256.195,218.531C233.039,205.906 214.679,221.812 205.836,235.469C198.93,246.141 188.352,251.063 188.352,251.063C188.352,251.063 201.852,266.485 228.883,257.376C250.805,250.001 256.196,235.22 256.196,235.22C256.196,235.22 261.571,250.001 283.493,257.376C310.508,266.484 324.039,251.063 324.039,251.063Z" style="fill:rgb(75,75,75);fill-rule:nonzero;"/>
                            </g>
                        </g>
                    </g>
                </g>
                <g transform="matrix(1.33163,0,0,1.33163,-984.578,7.52113)">
                    <g transform="matrix(0.330308,0,0,0.455947,2799.8,-25.5875)">
                        <path d="M503.687,61.893C495.688,45.208 482.552,31.369 466.305,21.665C450.042,11.97 430.619,6.394 409.765,6.378C382,6.394 356.703,16.296 338.107,32.7C328.814,40.906 321.183,50.766 315.867,61.893C310.54,73.002 307.549,85.385 307.549,98.357C307.541,114.885 312.426,130.437 320.789,143.681C327.933,155.005 337.594,164.692 348.989,172.269L331.828,215.135L344.22,213.605C387.032,208.252 428.013,192.229 447.477,183.817C465.969,177.216 481.931,165.932 493.421,151.274C504.985,136.516 512.013,118.176 512,98.356C512.013,85.386 509.005,73.003 503.687,61.893ZM482.675,140.777C473.055,153.078 459.178,163.021 442.749,168.795L442.526,168.861L442.302,168.961C425.46,176.273 391.391,189.55 355.176,195.854L367.452,165.23L361.426,161.781C349.266,154.833 339.31,145.369 332.456,134.508C325.595,123.613 321.83,111.387 321.819,98.358C321.819,88.126 324.147,78.405 328.449,69.405C334.888,55.93 345.87,44.142 359.966,35.729C374.066,27.317 391.23,22.32 409.764,22.328C434.515,22.32 456.762,31.212 472.591,45.201C480.499,52.191 486.803,60.422 491.096,69.405C495.393,78.405 497.722,88.125 497.73,98.358C497.723,113.941 492.312,128.451 482.675,140.777Z" style="fill:rgb(75,75,75);fill-rule:nonzero;"/>
                    </g>
                    <g transform="matrix(0.330308,0,0,0.455947,2799.8,-25.5875)">
                        <path d="M369.454,88.207C363.325,88.207 358.356,93.766 358.356,100.598C358.356,107.447 363.324,112.998 369.454,112.998C375.584,112.998 380.559,107.447 380.559,100.598C380.559,93.766 375.583,88.207 369.454,88.207Z" style="fill:rgb(75,75,75);fill-rule:nonzero;"/>
                    </g>
                    <g transform="matrix(0.330308,0,0,0.455947,2799.8,-25.5875)">
                        <path d="M412.275,88.207C406.141,88.207 401.166,93.766 401.166,100.598C401.166,107.447 406.142,112.998 412.275,112.998C418.405,112.998 423.376,107.447 423.376,100.598C423.376,93.766 418.405,88.207 412.275,88.207Z" style="fill:rgb(75,75,75);fill-rule:nonzero;"/>
                    </g>
                    <g transform="matrix(0.330308,0,0,0.455947,2799.8,-25.5875)">
                        <path d="M455.083,88.207C448.954,88.207 443.981,93.766 443.981,100.598C443.981,107.447 448.953,112.998 455.083,112.998C461.221,112.998 466.192,107.447 466.192,100.598C466.193,93.766 461.221,88.207 455.083,88.207Z" style="fill:rgb(75,75,75);fill-rule:nonzero;"/>
                    </g>
                </g>
            </g>
        </g>
    </g>
</svg>
