<?xml version="1.0" encoding="UTF-8" standalone="no"?>
<!DOCTYPE svg PUBLIC "-//W3C//DTD SVG 1.1//EN" "http://www.w3.org/Graphics/SVG/1.1/DTD/svg11.dtd">
<svg width="100%" height="100%" viewBox="0 0 257 256" version="1.1" xmlns="http://www.w3.org/2000/svg" xmlns:xlink="http://www.w3.org/1999/xlink" xml:space="preserve" xmlns:serif="http://www.serif.com/" style="fill-rule:evenodd;clip-rule:evenodd;stroke-linejoin:round;stroke-miterlimit:2;">
    <g transform="matrix(1,0,0,1,-3374,0)">
        <g id="icon-charge" transform="matrix(1.26367,0,0,0.915456,-124.446,21.834)">
            <rect x="2768.61" y="-23.85" width="202.585" height="279.642" style="fill:none;"/>
            <g id="コンセントのオスのアイコン素材.svg" transform="matrix(0.395674,0,0,0.546176,2852.56,115.971)">
                <g transform="matrix(1,0,0,1,-256,-256)">
                    <g>
                        <path d="M196.858,35.44C196.858,15.948 180.911,0 161.419,0C141.929,0 125.981,15.947 125.981,35.44L125.981,118.971L196.858,118.971L196.858,35.44Z" style="fill:rgb(75,75,75);fill-rule:nonzero;"/>
                        <path d="M386.017,35.44C386.017,15.948 370.072,0 350.579,0C331.089,0 315.141,15.947 315.141,35.44L315.141,118.971L386.016,118.971L386.016,35.44L386.017,35.44Z" style="fill:rgb(75,75,75);fill-rule:nonzero;"/>
                        <path d="M450.937,147.162L61.063,147.162C57.409,147.162 54.419,150.15 54.419,153.807L54.419,198.768C54.419,202.424 57.409,205.412 61.063,205.412L90.442,205.412L90.442,234.539C90.442,313.504 146.475,380.006 220.743,396.279L220.743,512L291.256,512L291.256,396.279C365.524,380.006 421.555,313.504 421.555,234.539L421.555,205.412L450.936,205.412C454.59,205.412 457.58,202.424 457.58,198.768L457.58,153.807C457.581,150.15 454.591,147.162 450.937,147.162ZM389.729,262.592C380.512,284.292 367.337,303.795 350.565,320.565C333.793,337.335 314.289,350.514 292.592,359.731C290.442,360.645 288.205,361.077 286.006,361.077C279.446,361.077 273.207,357.226 270.479,350.804C266.838,342.234 270.835,332.335 279.405,328.691C297.102,321.175 313.02,310.417 326.717,296.72C340.414,283.023 351.172,267.105 358.689,249.41C362.33,240.836 372.23,236.84 380.803,240.482C389.376,244.123 393.372,254.022 389.729,262.592Z" style="fill:rgb(75,75,75);fill-rule:nonzero;"/>
                    </g>
                </g>
            </g>
            <g id="クエスチョンマーク.svg" transform="matrix(0.140669,0,0,0.194175,2935.18,206.083)">
                <g transform="matrix(1,0,0,1,-256,-256)">
                    <g>
                        <path d="M396.138,85.295C382.966,60.258 362.343,39.397 336.796,24.265C311.26,9.2 280.435,0.001 246.98,0.001C205.742,-0.101 171.48,10.643 145.621,25.522C119.659,40.348 108.465,57.61 108.465,57.61C104.102,61.396 101.641,66.904 101.744,72.666C101.862,78.436 104.519,83.852 109.017,87.45L144.95,116.23C152.274,122.094 162.756,121.874 169.825,115.712C169.825,115.712 174.239,107.734 188.072,99.832C201.982,91.982 220.017,85.659 246.98,85.574C270.497,85.523 291.002,94.299 304.996,106.291C311.948,112.232 317.141,118.885 320.324,124.971C323.532,131.107 324.703,136.471 324.687,140.545C324.619,154.311 321.945,163.315 318.084,170.987C315.139,176.716 311.295,181.8 306.346,186.731C298.962,194.115 288.948,200.938 277.712,207.21C266.467,213.558 254.347,219.142 242.1,225.89C228.122,233.63 213.33,244.748 202.399,261.434C196.95,269.683 192.689,279.12 189.983,289.075C187.241,299.039 186.003,309.487 186.003,320.146L186.003,340.854C186.003,351.573 194.693,360.264 205.413,360.264L252.175,360.264C262.894,360.264 271.585,351.573 271.585,340.854L271.585,320.146C271.585,316.039 272.052,313.391 272.502,311.71C273.275,309.198 273.708,308.57 274.972,307.042C276.262,305.59 278.867,303.368 283.67,300.711C290.689,296.765 301.968,291.435 314.74,284.535C333.861,274.079 357.107,259.889 376.712,236.473C386.464,224.787 395.086,210.715 401.035,194.505C407.036,178.295 410.277,160.074 410.261,140.545C410.243,120.761 404.879,101.971 396.138,85.295Z" style="fill:rgb(75,75,75);fill-rule:nonzero;"/>
                        <path d="M228.809,406.44C199.657,406.44 176.021,430.084 176.021,459.228C176.021,488.364 199.658,512 228.809,512C257.945,512 281.572,488.364 281.572,459.228C281.572,430.084 257.945,406.44 228.809,406.44Z" style="fill:rgb(75,75,75);fill-rule:nonzero;"/>
                    </g>
                </g>
            </g>
        </g>
    </g>
</svg>
