<!--?xml version="1.0" encoding="utf-8"?-->
<!-- Generator: Adobe Illustrator 18.1.1, SVG Export Plug-In . SVG Version: 6.00 Build 0)  -->

<svg version="1.1" id="_x32_" xmlns="http://www.w3.org/2000/svg" xmlns:xlink="http://www.w3.org/1999/xlink" x="0px" y="0px" viewBox="0 0 512 512" style="width: 256px; height: 256px; opacity: 1;" xml:space="preserve">
<style type="text/css">
	.st0{fill:#4B4B4B;}
</style>
<g>
	<path class="st0" d="M509.026,71.575c-4.23-16.513-12.832-31.628-24.92-43.707C466.477,10.16,441.964,0,416.849,0H95.151
		C69.982,0,45.433,10.16,27.788,27.885C15.735,39.947,7.115,55.053,2.885,71.549c-1.911,7.602-2.884,15.539-2.884,23.602v321.725
		c-0.089,24.991,10.052,49.495,27.804,67.257C45.433,501.841,69.982,512,95.151,512h321.699c25.114,0,49.628-10.159,67.274-27.885
		C501.841,466.398,512,441.885,512,416.849V95.151C512,86.973,511.009,79.062,509.026,71.575z M466.69,416.92
		c-0.107,13.354-5.292,25.832-14.638,35.186c-9.522,9.407-22.018,14.584-35.203,14.584H95.151c-13.239,0-25.77-5.177-35.328-14.62
		c-9.363-9.363-14.513-21.868-14.513-35.221V177.477l146.477,133.54c17.522,16,40.283,24.814,64.124,24.814
		c23.876,0,46.672-8.814,64.212-24.823L466.69,177.39V416.92z M466.69,128.151L295.663,284.133
		c-10.778,9.964-24.902,15.45-39.752,15.45c-14.796,0-28.903-5.486-39.646-15.406L45.31,128.239V95.151
		c0-13.354,5.15-25.858,14.548-35.256c9.522-9.407,22.053-14.584,35.292-14.584h321.699c13.185,0,25.681,5.177,35.238,14.62
		c9.31,9.318,14.496,21.796,14.602,35.221V128.151z" style="fill: rgb(75, 75, 75);"></path>
</g>
</svg>
