<?xml version="1.0" encoding="UTF-8" standalone="no"?>
<!DOCTYPE svg PUBLIC "-//W3C//DTD SVG 1.1//EN" "http://www.w3.org/Graphics/SVG/1.1/DTD/svg11.dtd">
<svg width="100%" height="100%" viewBox="0 0 257 256" version="1.1" xmlns="http://www.w3.org/2000/svg" xmlns:xlink="http://www.w3.org/1999/xlink" xml:space="preserve" xmlns:serif="http://www.serif.com/" style="fill-rule:evenodd;clip-rule:evenodd;stroke-linejoin:round;stroke-miterlimit:2;">
    <g transform="matrix(1,0,0,1,-3957,0)">
        <g id="icon-others" transform="matrix(1.26367,0,0,0.915456,458.536,21.834)">
            <rect x="2768.61" y="-23.85" width="202.585" height="279.642" style="fill:none;"/>
            <clipPath id="_clip1">
                <rect x="2768.61" y="-23.85" width="202.585" height="279.642"/>
            </clipPath>
            <g clip-path="url(#_clip1)">
                <g id="カメラのアイコン素材-7.svg" serif:id="カメラのアイコン素材 7.svg" transform="matrix(0.222567,0,0,0.307224,2914.22,37.3213)">
                    <g transform="matrix(1,0,0,1,-256,-256)">
                        <g>
                            <path d="M256,233.109C227.5,233.109 204.406,256.406 204.406,285.156C204.406,313.922 227.5,337.203 256,337.203C284.5,337.203 307.594,313.922 307.594,285.156C307.594,256.406 284.5,233.109 256,233.109Z" style="fill:rgb(75,75,75);fill-rule:nonzero;"/>
                            <path d="M497.375,140.297C488.391,131.203 475.734,125.484 461.922,125.484L407.719,125.484C403.36,125.5 399.281,122.89 397.406,118.671L381.172,82.327C373.141,64.311 355.281,52.593 335.469,52.593L176.531,52.593C156.718,52.593 138.859,64.312 130.812,82.312L130.812,82.328L114.593,118.672C112.718,122.891 108.64,125.5 104.28,125.485L50.078,125.485C36.265,125.485 23.594,131.204 14.594,140.298C5.594,149.359 0,162.031 0,175.828L0,409.078C0,422.875 5.594,435.547 14.594,444.609C23.594,453.703 36.266,459.422 50.078,459.406L461.922,459.406C475.735,459.422 488.391,453.703 497.375,444.609C506.406,435.546 512,422.875 512,409.078L512,175.828C512,162.031 506.406,149.344 497.375,140.297ZM473.281,409.078C473.281,412.391 472,415.203 469.906,417.359C467.75,419.468 465.062,420.687 461.922,420.703L50.078,420.703C46.922,420.687 44.219,419.469 42.094,417.359C40,415.203 38.719,412.39 38.719,409.078L38.719,175.828C38.719,172.515 40,169.703 42.094,167.547C44.219,165.422 46.922,164.219 50.078,164.203L104.281,164.203C124.062,164.203 141.937,152.469 149.969,134.437L166.157,98.109C168.063,93.906 172.126,91.296 176.532,91.296L335.47,91.296C339.876,91.296 343.939,93.905 345.829,98.093L362.048,134.452C370.064,152.468 387.939,164.202 407.72,164.202L461.923,164.202C465.064,164.218 467.751,165.421 469.907,167.546C472.001,169.702 473.282,172.53 473.282,175.827L473.282,409.078L473.281,409.078Z" style="fill:rgb(75,75,75);fill-rule:nonzero;"/>
                            <path d="M256,170.938C224.687,170.922 196.25,183.782 175.797,204.438C155.313,225.094 142.625,253.704 142.641,285.157C142.625,316.61 155.313,345.251 175.797,365.876C196.25,386.548 224.688,399.392 256,399.392C287.297,399.392 315.75,386.548 336.203,365.876C356.687,345.251 369.375,316.61 369.359,285.157C369.375,253.704 356.687,225.094 336.203,204.438C315.75,183.781 287.297,170.922 256,170.938ZM315.031,344.891C299.859,360.188 279.078,369.579 256,369.579C232.906,369.579 212.141,360.188 196.953,344.891C181.812,329.594 172.453,308.563 172.437,285.157C172.453,261.766 181.812,240.735 196.953,225.423C212.141,210.126 232.906,200.751 256,200.735C279.078,200.751 299.859,210.126 315.031,225.423C330.187,240.736 339.547,261.767 339.562,285.157C339.547,308.563 330.188,329.594 315.031,344.891Z" style="fill:rgb(75,75,75);fill-rule:nonzero;"/>
                            <rect x="392.188" y="197.656" width="34.406" height="34.406" style="fill:rgb(75,75,75);"/>
                        </g>
                    </g>
                </g>
                <g id="クエスチョンマーク.svg" transform="matrix(0.136013,0,0,0.187748,2914.22,188.032)">
                    <g transform="matrix(1,0,0,1,-256,-256)">
                        <g>
                            <path d="M396.138,85.295C382.966,60.258 362.343,39.397 336.796,24.265C311.26,9.2 280.435,0.001 246.98,0.001C205.742,-0.101 171.48,10.643 145.621,25.522C119.659,40.348 108.465,57.61 108.465,57.61C104.102,61.396 101.641,66.904 101.744,72.666C101.862,78.436 104.519,83.852 109.017,87.45L144.95,116.23C152.274,122.094 162.756,121.874 169.825,115.712C169.825,115.712 174.239,107.734 188.072,99.832C201.982,91.982 220.017,85.659 246.98,85.574C270.497,85.523 291.002,94.299 304.996,106.291C311.948,112.232 317.141,118.885 320.324,124.971C323.532,131.107 324.703,136.471 324.687,140.545C324.619,154.311 321.945,163.315 318.084,170.987C315.139,176.716 311.295,181.8 306.346,186.731C298.962,194.115 288.948,200.938 277.712,207.21C266.467,213.558 254.347,219.142 242.1,225.89C228.122,233.63 213.33,244.748 202.399,261.434C196.95,269.683 192.689,279.12 189.983,289.075C187.241,299.039 186.003,309.487 186.003,320.146L186.003,340.854C186.003,351.573 194.693,360.264 205.413,360.264L252.175,360.264C262.894,360.264 271.585,351.573 271.585,340.854L271.585,320.146C271.585,316.039 272.052,313.391 272.502,311.71C273.275,309.198 273.708,308.57 274.972,307.042C276.262,305.59 278.867,303.368 283.67,300.711C290.689,296.765 301.968,291.435 314.74,284.535C333.861,274.079 357.107,259.889 376.712,236.473C386.464,224.787 395.086,210.715 401.035,194.505C407.036,178.295 410.277,160.074 410.261,140.545C410.243,120.761 404.879,101.971 396.138,85.295Z" style="fill:rgb(75,75,75);fill-rule:nonzero;"/>
                            <path d="M228.809,406.44C199.657,406.44 176.021,430.084 176.021,459.228C176.021,488.364 199.658,512 228.809,512C257.945,512 281.572,488.364 281.572,459.228C281.572,430.084 257.945,406.44 228.809,406.44Z" style="fill:rgb(75,75,75);fill-rule:nonzero;"/>
                        </g>
                    </g>
                </g>
                <g id="クエスチョンマーク.svg1" serif:id="クエスチョンマーク.svg" transform="matrix(0.136013,0,0,0.187748,2812.13,51.5219)">
                    <g transform="matrix(1,0,0,1,-256,-256)">
                        <g>
                            <path d="M396.138,85.295C382.966,60.258 362.343,39.397 336.796,24.265C311.26,9.2 280.435,0.001 246.98,0.001C205.742,-0.101 171.48,10.643 145.621,25.522C119.659,40.348 108.465,57.61 108.465,57.61C104.102,61.396 101.641,66.904 101.744,72.666C101.862,78.436 104.519,83.852 109.017,87.45L144.95,116.23C152.274,122.094 162.756,121.874 169.825,115.712C169.825,115.712 174.239,107.734 188.072,99.832C201.982,91.982 220.017,85.659 246.98,85.574C270.497,85.523 291.002,94.299 304.996,106.291C311.948,112.232 317.141,118.885 320.324,124.971C323.532,131.107 324.703,136.471 324.687,140.545C324.619,154.311 321.945,163.315 318.084,170.987C315.139,176.716 311.295,181.8 306.346,186.731C298.962,194.115 288.948,200.938 277.712,207.21C266.467,213.558 254.347,219.142 242.1,225.89C228.122,233.63 213.33,244.748 202.399,261.434C196.95,269.683 192.689,279.12 189.983,289.075C187.241,299.039 186.003,309.487 186.003,320.146L186.003,340.854C186.003,351.573 194.693,360.264 205.413,360.264L252.175,360.264C262.894,360.264 271.585,351.573 271.585,340.854L271.585,320.146C271.585,316.039 272.052,313.391 272.502,311.71C273.275,309.198 273.708,308.57 274.972,307.042C276.262,305.59 278.867,303.368 283.67,300.711C290.689,296.765 301.968,291.435 314.74,284.535C333.861,274.079 357.107,259.889 376.712,236.473C386.464,224.787 395.086,210.715 401.035,194.505C407.036,178.295 410.277,160.074 410.261,140.545C410.243,120.761 404.879,101.971 396.138,85.295Z" style="fill:rgb(75,75,75);fill-rule:nonzero;"/>
                            <path d="M228.809,406.44C199.657,406.44 176.021,430.084 176.021,459.228C176.021,488.364 199.658,512 228.809,512C257.945,512 281.572,488.364 281.572,459.228C281.572,430.084 257.945,406.44 228.809,406.44Z" style="fill:rgb(75,75,75);fill-rule:nonzero;"/>
                        </g>
                    </g>
                </g>
                <g id="可愛いスピーカーアイコン.svg" transform="matrix(0.282625,0,0,0.390126,2840.96,188.032)">
                    <g transform="matrix(1,0,0,1,-256,-256)">
                        <g>
                            <path d="M300.488,94.756C294.994,91.594 288.866,90.013 282.738,90.013C276.563,90.013 270.38,91.625 264.848,94.841L147.447,163.118L72.213,163.118C32.401,163.119 0,195.464 0,235.214L0,276.794C0,316.552 32.401,348.898 72.213,348.898L147.447,348.898L264.848,417.166C270.381,420.382 276.564,421.986 282.738,421.986C288.866,421.986 294.994,420.406 300.488,417.243C311.524,410.889 318.332,399.134 318.332,386.392L318.332,125.607C318.332,112.874 311.524,101.104 300.488,94.756ZM136.278,313.304L72.213,313.304C51.989,313.304 35.593,296.956 35.593,276.794L35.593,235.214C35.593,215.053 51.989,198.704 72.213,198.704L136.278,198.704L136.278,313.304ZM282.738,386.393L157.041,313.304L157.041,198.704L157.049,198.704L282.738,125.607L282.738,386.393Z" style="fill:rgb(75,75,75);fill-rule:nonzero;"/>
                        </g>
                    </g>
                </g>
            </g>
        </g>
    </g>
</svg>
